
            <svg data-logo="logo" xmlns="http://www.w3.org/2000/svg" viewBox="0 0 262 42">
                <g id="logogram" transform="translate(0, 0.5)"><path d="M45.1357 4.50571C45.9335 3.61928 46.82 2.88798 47.7285 2.3118C49.3241 1.31457 51.0083 0.782715 52.7368 0.782715V15.2536C51.4737 10.8658 48.7479 7.0985 45.1357 4.50571ZM66.6537 40.7827H15.3961C6.97508 40.7827 0.171753 33.9572 0.171753 25.5583C0.171753 17.514 6.42106 10.9101 14.3324 10.3561V0.782715C16.1053 0.782715 17.856 1.29241 19.4959 2.3118C20.4044 2.86582 21.2909 3.59712 22.0887 4.43922C25.3463 2.15668 29.2909 0.827036 33.5679 0.827036C33.5679 10.068 30.2438 20.816 19.4294 20.8381H33.4571C33.0582 19.0431 31.4183 17.7135 29.4682 17.6913H37.6233C35.6731 17.6913 34.0332 19.0431 33.6344 20.8603H46.7091C49.3241 20.8603 51.9169 21.37 54.3546 22.3894C56.7701 23.3866 58.9862 24.8714 60.8255 26.7107C62.687 28.5722 64.1496 30.7661 65.1468 33.1816C66.1441 35.575 66.6537 38.1678 66.6537 40.7827ZM22.9529 10.6221C23.2853 11.4863 24.1718 12.4614 25.4127 13.1705C26.6537 13.8797 27.9391 14.1678 28.8477 14.0348C28.5152 13.1705 27.6288 12.1955 26.3878 11.4863C25.1468 10.7772 23.8615 10.4891 22.9529 10.6221ZM41.6122 13.1705C40.3712 13.8797 39.0859 14.1678 38.1773 14.0348C38.5097 13.1705 39.3961 12.1955 40.6371 11.4863C41.8781 10.7772 43.1634 10.4891 44.072 10.6221C43.7618 11.4863 42.8532 12.4614 41.6122 13.1705Z" fill="#FFFFFF"/></g>
                <g id="logotype" transform="translate(73, 0)"><path fill="#ffffff" d="M20.04 35L8.91 35L8.91 10.50L20.04 10.50Q24.03 10.50 27.07 12.02Q30.12 13.54 31.83 16.27Q33.55 19.00 33.55 22.75L33.55 22.75Q33.55 26.46 31.83 29.21Q30.12 31.95 27.07 33.48Q24.03 35 20.04 35L20.04 35ZM14.58 15.15L14.58 30.34L19.76 30.34Q22.21 30.34 24.01 29.42Q25.81 28.49 26.81 26.77Q27.81 25.06 27.81 22.75L27.81 22.75Q27.81 20.41 26.81 18.71Q25.81 17.01 24.01 16.08Q22.21 15.15 19.76 15.15L19.76 15.15L14.58 15.15ZM45.62 35.28L45.62 35.28Q42.61 35.28 40.28 34.02Q37.95 32.76 36.61 30.57Q35.26 28.38 35.26 25.59L35.26 25.59Q35.26 22.75 36.61 20.56Q37.95 18.38 40.28 17.13Q42.61 15.89 45.62 15.89L45.62 15.89Q48.59 15.89 50.94 17.13Q53.29 18.38 54.62 20.54Q55.95 22.71 55.95 25.59L55.95 25.59Q55.95 28.38 54.62 30.57Q53.29 32.76 50.94 34.02Q48.59 35.28 45.62 35.28ZM45.62 30.80L45.62 30.80Q46.98 30.80 48.07 30.17Q49.16 29.54 49.79 28.37Q50.42 27.20 50.42 25.59L50.42 25.59Q50.42 23.94 49.79 22.78Q49.16 21.63 48.07 21Q46.98 20.37 45.62 20.37L45.62 20.37Q44.26 20.37 43.17 21Q42.09 21.63 41.44 22.78Q40.79 23.94 40.79 25.59L40.79 25.59Q40.79 27.20 41.44 28.37Q42.09 29.54 43.17 30.17Q44.26 30.80 45.62 30.80ZM67.67 42.07L67.67 42.07Q65.01 42.07 62.54 41.42Q60.07 40.77 58.43 39.48L58.43 39.48L60.60 35.56Q61.79 36.54 63.63 37.12Q65.47 37.70 67.25 37.70L67.25 37.70Q70.16 37.70 71.47 36.40Q72.78 35.10 72.78 32.55L72.78 32.55L72.78 29.71L73.13 24.99L73.06 20.23L73.06 16.17L78.24 16.17L78.24 31.85Q78.24 37.10 75.51 39.59Q72.78 42.07 67.67 42.07ZM66.83 34.09L66.83 34.09Q64.20 34.09 62.09 32.95Q59.97 31.81 58.69 29.77Q57.41 27.72 57.41 24.99L57.41 24.99Q57.41 22.23 58.69 20.18Q59.97 18.13 62.09 17.01Q64.20 15.89 66.83 15.89L66.83 15.89Q69.21 15.89 71.03 16.85Q72.85 17.81 73.86 19.83Q74.88 21.84 74.88 24.99L74.88 24.99Q74.88 28.11 73.86 30.12Q72.85 32.13 71.03 33.11Q69.21 34.09 66.83 34.09ZM67.91 29.61L67.91 29.61Q69.35 29.61 70.47 29.03Q71.59 28.45 72.22 27.41Q72.85 26.35 72.85 24.99L72.85 24.99Q72.85 23.59 72.22 22.56Q71.59 21.52 70.47 20.95Q69.35 20.37 67.91 20.37L67.91 20.37Q66.48 20.37 65.36 20.95Q64.24 21.52 63.59 22.56Q62.94 23.59 62.94 24.99L62.94 24.99Q62.94 26.35 63.59 27.41Q64.24 28.45 65.36 29.03Q66.48 29.61 67.91 29.61ZM91.40 42.07L91.40 42.07Q88.74 42.07 86.27 41.42Q83.81 40.77 82.16 39.48L82.16 39.48L84.33 35.56Q85.52 36.54 87.36 37.12Q89.20 37.70 90.98 37.70L90.98 37.70Q93.89 37.70 95.20 36.40Q96.51 35.10 96.51 32.55L96.51 32.55L96.51 29.71L96.86 24.99L96.79 20.23L96.79 16.17L101.97 16.17L101.97 31.85Q101.97 37.10 99.24 39.59Q96.51 42.07 91.40 42.07ZM90.56 34.09L90.56 34.09Q87.94 34.09 85.82 32.95Q83.70 31.81 82.42 29.77Q81.15 27.72 81.15 24.99L81.15 24.99Q81.15 22.23 82.42 20.18Q83.70 18.13 85.82 17.01Q87.94 15.89 90.56 15.89L90.56 15.89Q92.94 15.89 94.76 16.85Q96.58 17.81 97.59 19.83Q98.61 21.84 98.61 24.99L98.61 24.99Q98.61 28.11 97.59 30.12Q96.58 32.13 94.76 33.11Q92.94 34.09 90.56 34.09ZM91.65 29.61L91.65 29.61Q93.08 29.61 94.20 29.03Q95.32 28.45 95.95 27.41Q96.58 26.35 96.58 24.99L96.58 24.99Q96.58 23.59 95.95 22.56Q95.32 21.52 94.20 20.95Q93.08 20.37 91.65 20.37L91.65 20.37Q90.21 20.37 89.09 20.95Q87.97 21.52 87.32 22.56Q86.68 23.59 86.68 24.99L86.68 24.99Q86.68 26.35 87.32 27.41Q87.97 28.45 89.09 29.03Q90.21 29.61 91.65 29.61ZM115.24 35.28L115.24 35.28Q112.23 35.28 109.90 34.02Q107.57 32.76 106.22 30.57Q104.88 28.38 104.88 25.59L104.88 25.59Q104.88 22.75 106.22 20.56Q107.57 18.38 109.90 17.13Q112.23 15.89 115.24 15.89L115.24 15.89Q118.21 15.89 120.56 17.13Q122.90 18.38 124.23 20.54Q125.56 22.71 125.56 25.59L125.56 25.59Q125.56 28.38 124.23 30.57Q122.90 32.76 120.56 34.02Q118.21 35.28 115.24 35.28ZM115.24 30.80L115.24 30.80Q116.60 30.80 117.69 30.17Q118.77 29.54 119.40 28.37Q120.03 27.20 120.03 25.59L120.03 25.59Q120.03 23.94 119.40 22.78Q118.77 21.63 117.69 21Q116.60 20.37 115.24 20.37L115.24 20.37Q113.87 20.37 112.79 21Q111.70 21.63 111.05 22.78Q110.41 23.94 110.41 25.59L110.41 25.59Q110.41 27.20 111.05 28.37Q111.70 29.54 112.79 30.17Q113.87 30.80 115.24 30.80ZM136.87 35.42L136.87 35.42Q133.93 35.42 131.23 34.63Q128.54 33.84 126.89 32.59L126.89 32.59L128.81 28.31Q130.39 29.43 132.54 30.15Q134.70 30.87 136.90 30.87L136.90 30.87Q138.58 30.87 139.61 30.54Q140.65 30.20 141.14 29.61Q141.63 29.02 141.63 28.24L141.63 28.24Q141.63 27.27 140.86 26.69Q140.09 26.11 138.83 25.74Q137.56 25.38 136.04 25.04Q134.52 24.71 133.00 24.22Q131.48 23.73 130.22 22.96Q128.96 22.19 128.17 20.93Q127.38 19.67 127.38 17.71L127.38 17.71Q127.38 15.61 128.52 13.88Q129.66 12.14 131.95 11.11Q134.24 10.08 137.71 10.08L137.71 10.08Q140.02 10.08 142.26 10.62Q144.50 11.16 146.21 12.25L146.21 12.25L144.46 16.55Q142.75 15.57 141.03 15.10Q139.31 14.63 137.67 14.63L137.67 14.63Q136.03 14.63 134.98 15.01Q133.93 15.40 133.47 16.01Q133.02 16.63 133.02 17.43L133.02 17.43Q133.02 18.38 133.79 18.95Q134.56 19.53 135.81 19.88Q137.08 20.23 138.60 20.58Q140.12 20.93 141.64 21.38Q143.17 21.84 144.43 22.61Q145.69 23.38 146.47 24.64Q147.26 25.90 147.26 27.82L147.26 27.82Q147.26 29.89 146.11 31.61Q144.95 33.32 142.66 34.37Q140.37 35.42 136.87 35.42ZM157.94 35.28L157.94 35.28Q155.59 35.28 153.75 34.37Q151.91 33.46 150.90 31.59Q149.88 29.71 149.88 26.81L149.88 26.81L149.88 16.17L155.34 16.17L155.34 26.00Q155.34 28.35 156.34 29.45Q157.34 30.55 159.16 30.55L159.16 30.55Q160.42 30.55 161.40 30.01Q162.38 29.47 162.94 28.33Q163.50 27.20 163.50 25.48L163.50 25.48L163.50 16.17L168.96 16.17L168.96 35L163.78 35L163.78 29.82L164.72 31.32Q163.78 33.28 161.94 34.28Q160.10 35.28 157.94 35.28ZM179.60 35.28L179.60 35.28Q177.18 35.28 174.96 34.70Q172.74 34.13 171.44 33.25L171.44 33.25L173.26 29.33Q174.56 30.13 176.33 30.64Q178.09 31.15 179.81 31.15L179.81 31.15Q181.70 31.15 182.49 30.70Q183.27 30.24 183.27 29.43L183.27 29.43Q183.27 28.77 182.66 28.44Q182.05 28.11 181.03 27.93Q180.02 27.75 178.81 27.58Q177.60 27.41 176.38 27.11Q175.15 26.81 174.14 26.21Q173.12 25.62 172.51 24.60Q171.90 23.59 171.90 21.98L171.90 21.98Q171.90 20.20 172.93 18.83Q173.96 17.46 175.92 16.68Q177.88 15.89 180.61 15.89L180.61 15.89Q182.54 15.89 184.53 16.31Q186.53 16.73 187.86 17.53L187.86 17.53L186.04 21.42Q184.67 20.61 183.29 20.32Q181.91 20.02 180.61 20.02L180.61 20.02Q178.79 20.02 177.95 20.51Q177.11 21 177.11 21.77L177.11 21.77Q177.11 22.47 177.73 22.82Q178.34 23.17 179.35 23.38Q180.37 23.59 181.58 23.75Q182.78 23.91 184.01 24.22Q185.23 24.53 186.23 25.11Q187.23 25.69 187.86 26.69Q188.49 27.68 188.49 29.29L188.49 29.29Q188.49 31.04 187.44 32.39Q186.39 33.74 184.41 34.51Q182.43 35.28 179.60 35.28Z"/></g>
                
            </svg>
        